<svg width="18" height="26" viewBox="0 0 18 26" fill="none" xmlns="http://www.w3.org/2000/svg">
    <path d="M17.9688 15.9625C17.813 16.7955 16.0878 17.7326 15.3187 16.3269C14.6848 15.1607 12.9284 12.4743 12.3464 11.5788L6.98385 1.87438C6.00695 0.114667 3.79332 -0.520495 2.03697 0.45828C-0.363722 1.87438 0.0208044 3.8944 0.0208044 9.20478C0.176694 8.37178 2.03697 7.94486 2.80602 9.35055C3.57508 10.7562 11.0578 24.2717 11.0578 24.2717C12.0347 26.0314 14.903 26.25 16.0462 25.7398C17.1063 25.2713 17.7506 24.1363 17.8545 22.9284C18.1247 21.5123 17.9169 19.3465 17.9688 15.9625Z" fill="url(#paint0_linear_2029_256)"/>
    <defs>
    <linearGradient id="paint0_linear_2029_256" x1="2.19565" y1="1.50132" x2="16.2341" y2="24.2899" gradientUnits="userSpaceOnUse">
    <stop stop-color="#FFD403"/>
    <stop offset="1" stop-color="#2F5B0B"/>
    </linearGradient>
    </defs>
    </svg>
    